<svg width="360" height="76" viewBox="0 0 360 76" fill="none" xmlns="http://www.w3.org/2000/svg">
<path d="M0 74.106L12 71.7432C24 69.4878 48 64.7622 72 62.292C96 59.8218 120 59.3922 144 60.681C168 61.9698 192 64.7622 216 67.125C240 69.4878 264 71.2062 288 72.495C312 73.7838 336 74.4282 348 74.8578L360 75.18V0H348C336 0 312 0 288 0C264 0 240 0 216 0C192 0 168 0 144 0C120 0 96 0 72 0C48 0 24 0 12 0H0V74.106Z" fill="#528AC4"/>
<path d="M0 50.478L12 51.3372C24 52.3038 48 54.0222 72 55.6332C96 57.2442 120 58.7478 144 58.7478C168 58.7478 192 57.2442 216 56.5998C240 55.848 264 55.848 288 53.4852C312 51.2298 336 46.5042 348 44.2488L360 41.886V0H348C336 0 312 0 288 0C264 0 240 0 216 0C192 0 168 0 144 0C120 0 96 0 72 0C48 0 24 0 12 0H0V50.478Z" fill="#528AC4"/>
<path d="M0 47.256L12 46.182C24 45.108 48 42.96 72 40.4898C96 37.9122 120 35.1198 144 37.2678C168 39.4158 192 46.5042 216 49.6188C240 52.626 264 51.552 288 49.7262C312 48.0078 336 45.4302 348 44.2488L360 42.96V0H348C336 0 312 0 288 0C264 0 240 0 216 0C192 0 168 0 144 0C120 0 96 0 72 0C48 0 24 0 12 0H0V47.256Z" fill="#3B6AA6"/>
<path d="M0 33.294L12 34.0458C24 34.6902 48 36.1938 72 35.442C96 34.6902 120 31.8978 144 30.3942C168 28.998 192 28.998 216 31.146C240 33.294 264 37.59 288 37.9122C312 38.3418 336 34.6902 348 32.9718L360 31.146V0H348C336 0 312 0 288 0C264 0 240 0 216 0C192 0 168 0 144 0C120 0 96 0 72 0C48 0 24 0 12 0H0V33.294Z" fill="#3B6AA6"/>
<path d="M0 28.998L12 27.0648C24 25.0242 48 21.1578 72 20.7282C96 20.406 120 23.628 144 23.628C168 23.628 192 20.406 216 20.0838C240 19.6542 264 22.2318 288 24.4872C312 26.85 336 28.998 348 30.072L360 31.146V0H348C336 0 312 0 288 0C264 0 240 0 216 0C192 0 168 0 144 0C120 0 96 0 72 0C48 0 24 0 12 0H0V28.998Z" fill="#264B88"/>
<path d="M0 11.814L12 11.5992C24 11.4918 48 11.0622 72 10.5252C96 9.9882 120 9.3438 144 9.9882C168 10.74 192 12.888 216 13.7472C240 14.7138 264 14.2842 288 13.962C312 13.6398 336 13.2102 348 13.1028L360 12.888V0H348C336 0 312 0 288 0C264 0 240 0 216 0C192 0 168 0 144 0C120 0 96 0 72 0C48 0 24 0 12 0H0V11.814Z" fill="#112E6A"/>
</svg>
